<?xml version="1.0" encoding="utf-8"?>
<!-- Generator: Adobe Illustrator 24.0.3, SVG Export Plug-In . SVG Version: 6.00 Build 0)  -->
<svg version="1.1" id="Layer_1" xmlns="http://www.w3.org/2000/svg" xmlns:xlink="http://www.w3.org/1999/xlink" x="0px" y="0px"
	 viewBox="0 0 60 60" style="enable-background:new 0 0 60 60;" xml:space="preserve">
<style type="text/css">
	.st0{fill:url(#SVGID_1_);}
	.st1{fill:url(#SVGID_2_);}
	.st2{fill:url(#SVGID_3_);}
	.st3{fill:#FF6700;}
	.st4{fill:url(#SVGID_4_);}
	.st5{fill:url(#SVGID_5_);}
	.st6{fill:url(#SVGID_6_);}
	.st7{fill:#FFFFFF;}
	.st8{fill:url(#SVGID_7_);}
	.st9{fill:url(#SVGID_8_);}
</style>
<g>
	<linearGradient id="SVGID_1_" gradientUnits="userSpaceOnUse" x1="-59.3272" y1="32.0376" x2="-20.6476" y2="32.0376">
		<stop  offset="0" style="stop-color:#FFFFFF"/>
		<stop  offset="4.946608e-03" style="stop-color:#530089"/>
		<stop  offset="0.6451" style="stop-color:#360053"/>
		<stop  offset="1" style="stop-color:#29003A"/>
	</linearGradient>
	<polygon class="st0" points="-24.9,23.9 -24.9,47.1 -55,47.1 -55,17 -33.2,17 -33.2,12.7 -59.3,12.7 -59.3,51.4 -20.6,51.4 
		-20.6,23.9 	"/>
	<linearGradient id="SVGID_2_" gradientUnits="userSpaceOnUse" x1="-26.0299" y1="14.3357" x2="-18.6425" y2="14.3357">
		<stop  offset="0" style="stop-color:#FFFFFF"/>
		<stop  offset="4.946608e-03" style="stop-color:#530089"/>
		<stop  offset="0.6451" style="stop-color:#360053"/>
		<stop  offset="1" style="stop-color:#29003A"/>
	</linearGradient>
	<path class="st1" d="M-26,13.4c1.3-0.6,2.8-0.3,3.8,0.6c1.1,1,1.4,2.6,0.8,4c0.9-0.9,1.8-1.8,2.6-2.6c0.4-1.4,0-2.9-1.1-3.8
		c-1.5-1.4-3.4-0.8-3.5-0.8C-24.3,11.7-25.1,12.5-26,13.4z"/>
	<path d="M-40.3,32.3"/>
	<g>
		<linearGradient id="SVGID_3_" gradientUnits="userSpaceOnUse" x1="-38.3584" y1="18.5142" x2="-22.1225" y2="31.2302">
			<stop  offset="0" style="stop-color:#FFFFFF"/>
			<stop  offset="4.946608e-03" style="stop-color:#530089"/>
			<stop  offset="0.6451" style="stop-color:#360053"/>
			<stop  offset="1" style="stop-color:#29003A"/>
		</linearGradient>
		<path class="st2" d="M-22.2,15.2c-0.2-0.2-0.4-0.5-0.6-0.7c0,0,0,0,0,0c-1.4-1.2-3.5-1.1-4.8,0.2l-13,13c-0.3,0.3-0.5,0.7-0.7,1
			c-0.3,0.7-0.6,1.4-0.9,2c1.1,0.1,2.8,0.7,3.1,3.4c0.6-0.2,1.4-0.5,2.2-0.8c0.5-0.2,0.9-0.5,1.3-0.8l13-13
			C-21.5,18.4-21.3,16.5-22.2,15.2z"/>
		<path class="st3" d="M-42.3,30.7c-2,4.3-1.9,5.1,3.1,3.4C-39.4,31.5-41.1,30.9-42.3,30.7z"/>
	</g>
</g>
<linearGradient id="SVGID_4_" gradientUnits="userSpaceOnUse" x1="14.0151" y1="14.0151" x2="47.0151" y2="14.0151">
	<stop  offset="0" style="stop-color:#FFFFFF"/>
	<stop  offset="4.946608e-03" style="stop-color:#530089"/>
	<stop  offset="0.6451" style="stop-color:#360053"/>
	<stop  offset="1" style="stop-color:#29003A"/>
</linearGradient>
<rect x="14" y="12" class="st4" width="33" height="4"/>
<linearGradient id="SVGID_5_" gradientUnits="userSpaceOnUse" x1="23.0151" y1="9.0151" x2="38.0151" y2="9.0151">
	<stop  offset="0" style="stop-color:#FFFFFF"/>
	<stop  offset="4.946608e-03" style="stop-color:#530089"/>
	<stop  offset="0.6451" style="stop-color:#360053"/>
	<stop  offset="1" style="stop-color:#29003A"/>
</linearGradient>
<polygon class="st5" points="23,6 23,12 27.1,12 27.1,8.9 33.9,8.9 33.9,12 38,12 38,6 "/>
<linearGradient id="SVGID_6_" gradientUnits="userSpaceOnUse" x1="16.2651" y1="19.7651" x2="44.7651" y2="48.2651">
	<stop  offset="0" style="stop-color:#FF6700"/>
	<stop  offset="1" style="stop-color:#9D2F08"/>
</linearGradient>
<rect x="18" y="18" class="st6" width="25" height="32"/>
<polygon class="st7" points="39.4,28.9 35.8,25.4 30.6,30.6 25.2,25.2 21.7,28.7 27.1,34.1 21.7,39.5 25.2,43 30.6,37.6 35.8,42.9 
	39.4,39.3 34.1,34.1 "/>
<g>
	<linearGradient id="SVGID_7_" gradientUnits="userSpaceOnUse" x1="74.2872" y1="2.6491" x2="126.3812" y2="54.743">
		<stop  offset="0" style="stop-color:#FF6700"/>
		<stop  offset="1" style="stop-color:#9D2F08"/>
	</linearGradient>
	<path class="st8" d="M127.5,14.3c-0.1-2-0.3-4-0.4-6c-0.3-3.4-3-6.1-6.3-6.4C113,1.3,105.7,1,99,1c-7.7,0-15,0.4-21.7,0.9
		c-3.4,0.3-6.1,3-6.4,6.3C70.3,16.1,70,23.3,70,30c0,6.5,0.3,12.7,0.7,18.5C82.5,49.8,118.9,50.5,127.5,14.3z"/>
	<linearGradient id="SVGID_8_" gradientUnits="userSpaceOnUse" x1="71.0015" y1="5.9348" x2="123.0955" y2="58.0287">
		<stop  offset="0" style="stop-color:#912000"/>
		<stop  offset="1" style="stop-color:#9D2F08"/>
	</linearGradient>
	<path class="st9" d="M77.3,58.1C85.1,58.8,92.3,59,99,59c7.7,0,15-0.4,21.7-0.9c3.4-0.3,6.1-3,6.4-6.3C127.8,44,128,36.7,128,30
		c0-5.5-0.2-10.7-0.5-15.7c-8.6,36.2-45,35.5-56.8,34.2c0.1,1.1,0.2,2.1,0.2,3.2C71.2,55.1,73.9,57.8,77.3,58.1z"/>
</g>
<path class="st7" d="M113.5,26H103V15.5c0-2.2-1.8-4-4-4c-2.2,0-4,1.8-4,4V26H84.5c-2.2,0-4,1.8-4,4c0,2.2,1.8,4,4,4H95v10.5
	c0,2.2,1.8,4,4,4c2.2,0,4-1.8,4-4V34h10.5c2.2,0,4-1.8,4-4C117.5,27.8,115.7,26,113.5,26z"/>
</svg>
