<?xml version="1.0" encoding="utf-8"?>
<!-- Generator: Adobe Illustrator 24.0.3, SVG Export Plug-In . SVG Version: 6.00 Build 0)  -->
<svg version="1.1" id="Layer_1" xmlns="http://www.w3.org/2000/svg" xmlns:xlink="http://www.w3.org/1999/xlink" x="0px" y="0px"
	 viewBox="0 0 500 115" style="enable-background:new 0 0 500 115;" xml:space="preserve">
<style type="text/css">
	.st0{fill:url(#SVGID_1_);}
	.st1{enable-background:new    ;}
	.st2{fill:#FFFFFF;}
	.st3{fill:#FF6700;}
	.st4{fill:none;}
	.st5{fill:#63B799;}
	.st6{fill:#56917B;}
</style>
<linearGradient id="SVGID_1_" gradientUnits="userSpaceOnUse" x1="0" y1="84.5" x2="500" y2="84.5" gradientTransform="matrix(1 0 0 -1 0 142)">
	<stop  offset="0" style="stop-color:#29003A"/>
	<stop  offset="1" style="stop-color:#29003A"/>
</linearGradient>
<rect class="st0" width="500" height="115"/>
<g class="st1">
	<path class="st2" d="M48.4,62.9c-0.2,0.2-0.5,0.3-0.9,0.4c-0.3,0.1-0.8,0.2-1.2,0.2c-0.6,0-1-0.1-1.4-0.2c-0.4-0.1-0.7-0.4-0.8-0.8
		c-0.9-2.2-1.7-4.1-2.3-5.7c-0.6-1.6-1.1-2.9-1.5-4h-0.2c-0.1,1.5-0.1,2.8-0.2,4c0.1,1.2,0.1,2.4,0,3.6c0,1.2-0.1,2.4-0.1,3.6
		c-0.1,1.2-0.1,2.5-0.2,3.9c-0.2,0.1-0.5,0.1-0.8,0.2s-0.7,0.1-1,0.1c-1.5,0-2.2-0.5-2.2-1.6c0-0.3,0-0.9,0-1.6s0.1-1.6,0.1-2.6
		c0.1-1,0.1-2,0.2-3.2c0.1-1.2,0.2-2.3,0.2-3.5c0.1-1.2,0.2-2.3,0.2-3.5c0.1-1.1,0.2-2.2,0.2-3.2c0.2-0.2,0.5-0.4,1-0.7
		c0.5-0.2,1.1-0.3,1.8-0.3c0.8,0,1.5,0.1,2,0.4c0.5,0.3,0.9,0.7,1.2,1.4s0.6,1.4,0.9,2.2c0.3,0.8,0.6,1.6,1,2.5
		c0.3,0.9,0.6,1.7,1,2.5c0.3,0.8,0.6,1.6,0.9,2.3h0.1c0.7-2.1,1.5-4,2.2-6c0.7-1.9,1.4-3.6,1.9-4.9c0.3-0.1,0.6-0.2,1-0.3
		s0.8-0.1,1.3-0.1c0.8,0,1.5,0.1,1.9,0.4c0.5,0.2,0.8,0.6,0.9,1.1c0.1,0.4,0.2,1.1,0.3,2s0.2,1.9,0.3,3.1c0.1,1.2,0.2,2.4,0.3,3.7
		s0.2,2.6,0.3,3.8s0.2,2.3,0.2,3.3c0.1,1,0.1,1.8,0.1,2.4c-0.3,0.2-0.6,0.3-0.9,0.4c-0.3,0.1-0.7,0.1-1.2,0.1
		c-0.6,0-1.1-0.1-1.5-0.3c-0.4-0.2-0.7-0.7-0.7-1.3c-0.1-1.4-0.2-2.7-0.2-4c-0.1-1.3-0.1-2.6-0.2-3.8c0-1.2-0.1-2.3-0.1-3.3
		s-0.1-1.9-0.1-2.6H52c-0.3,1-0.8,2.3-1.4,3.9C50.2,58.3,49.4,60.4,48.4,62.9z"/>
	<path class="st2" d="M63.6,64.1c-0.5-1.1-1.1-2.6-1.9-4.4c-0.7-1.9-1.4-4.1-2.2-6.8c0.2-0.3,0.5-0.5,0.9-0.7s0.8-0.3,1.3-0.3
		c0.6,0,1,0.1,1.4,0.4c0.4,0.3,0.6,0.7,0.9,1.4c1,3.3,2.2,6.6,3.5,10h0.1c0.3-0.7,0.6-1.5,0.9-2.5c0.3-0.9,0.6-1.9,0.9-2.9
		s0.6-2,0.8-3s0.5-2,0.7-3c0.3-0.1,0.5-0.2,0.8-0.3s0.6-0.1,0.9-0.1c0.6,0,1.1,0.1,1.5,0.4c0.4,0.3,0.6,0.7,0.6,1.3
		c0,0.7-0.1,1.6-0.4,2.8s-0.7,2.5-1.1,3.8c-0.5,1.4-1,2.7-1.6,4.1s-1.2,2.6-1.8,3.7c-1.1,2-2.2,3.5-3.1,4.5S64.9,74,64,74
		c-0.7,0-1.3-0.2-1.7-0.6s-0.7-0.9-0.8-1.5c0.3-0.3,0.7-0.7,1.1-1.1c0.4-0.4,0.8-0.8,1.2-1.3c0.4-0.5,0.8-0.9,1.1-1.4s0.7-1,0.9-1.4
		c-0.2-0.1-0.4-0.1-0.6-0.2s-0.4-0.2-0.6-0.4c-0.2-0.2-0.4-0.4-0.6-0.8C64,65,63.8,64.6,63.6,64.1z"/>
</g>
<g>
	<path class="st3" d="M99.2,51.8c0,1.1-0.3,2-0.9,2.7c-0.6,0.8-1.4,1.3-2.5,1.8c2.8,0.9,4.2,2.6,4.2,5.1c0,2.4-0.9,4.1-2.6,5.3
		c-1.8,1.1-4.3,1.7-7.6,1.7c-0.4,0-0.9,0-1.4,0c-0.6,0-1.1-0.1-1.7-0.1c-0.6-0.1-1.2-0.2-1.7-0.3c-0.6-0.1-1.1-0.3-1.6-0.4
		c-1.3-0.5-2-1.4-2-2.6V48.2c0-0.5,0.1-0.9,0.4-1.2s0.7-0.5,1.1-0.7c0.8-0.3,1.8-0.5,3.1-0.6c1.2-0.1,2.5-0.2,3.8-0.2
		c3.1,0,5.4,0.5,7.1,1.5C98.3,48.1,99.2,49.7,99.2,51.8z M87.3,54.6H90c1,0,1.8-0.2,2.2-0.6c0.5-0.4,0.7-0.9,0.7-1.7
		c0-0.6-0.3-1.2-0.8-1.5c-0.5-0.4-1.3-0.6-2.4-0.6c-0.4,0-0.8,0-1.2,0c-0.5,0-0.8,0.1-1.1,0.1L87.3,54.6L87.3,54.6z M93.5,61.2
		c0-1.5-1-2.2-2.9-2.2h-3.2v4.4c0.3,0.1,0.8,0.2,1.3,0.2s1,0.1,1.5,0.1c1,0,1.8-0.2,2.4-0.6C93.2,62.7,93.5,62,93.5,61.2z"/>
	<path class="st3" d="M102.8,50.5c0.3-0.1,0.6-0.1,1.1-0.2c0.5-0.1,1-0.1,1.6-0.1c1.2,0,2.1,0.2,2.6,0.6c0.5,0.4,0.8,1.2,0.8,2.3V61
		c0,1,0.2,1.7,0.7,2.1c0.5,0.4,1.2,0.6,2.1,0.6c0.6,0,1,0,1.3-0.1s0.6-0.2,0.8-0.3V50.5c0.3-0.1,0.6-0.1,1.1-0.2
		c0.5-0.1,1-0.1,1.6-0.1c1.2,0,2.1,0.2,2.6,0.6c0.5,0.4,0.8,1.2,0.8,2.3v11.1c0,1.2-0.5,2.1-1.5,2.7c-0.8,0.5-1.8,0.9-3,1.2
		c-1.2,0.3-2.4,0.4-3.8,0.4c-1.3,0-2.5-0.1-3.6-0.4s-2-0.7-2.8-1.3c-0.8-0.6-1.4-1.4-1.8-2.3s-0.6-2.1-0.6-3.4
		C102.8,61.1,102.8,50.5,102.8,50.5z"/>
	<path class="st3" d="M132.2,49.9c1,0,1.9,0.1,2.7,0.4v-5.8c0.3-0.1,0.6-0.1,1.1-0.2c0.5-0.1,1-0.1,1.6-0.1c1.2,0,2.1,0.2,2.6,0.6
		c0.5,0.4,0.8,1.2,0.8,2.3v17c0,1.1-0.5,2-1.6,2.7c-0.7,0.5-1.6,0.9-2.7,1.2c-1.1,0.3-2.4,0.5-3.8,0.5c-3.1,0-5.6-0.8-7.3-2.3
		c-1.7-1.5-2.6-3.8-2.6-6.9c0-1.6,0.2-3,0.7-4.1c0.5-1.2,1.1-2.1,2-2.9c0.8-0.8,1.8-1.3,2.9-1.7C129.7,50.1,130.9,49.9,132.2,49.9z
		 M134.9,55.1c-0.3-0.1-0.6-0.2-0.9-0.3c-0.3-0.1-0.6-0.1-1-0.1c-1.2,0-2.2,0.4-2.9,1.1c-0.7,0.8-1,1.9-1,3.4s0.3,2.6,1,3.3
		c0.6,0.7,1.6,1.1,2.8,1.1c0.4,0,0.8,0,1.2-0.1s0.6-0.2,0.8-0.3L134.9,55.1L134.9,55.1z"/>
	<path class="st3" d="M155.5,66.6c-0.5,0.2-1,0.3-1.6,0.4s-1.2,0.2-2,0.2c-1.1,0-2.1-0.1-3.1-0.4s-1.8-0.8-2.5-1.5s-1.3-1.6-1.7-2.6
		c-0.4-1.1-0.6-2.4-0.6-4c0-1.4,0.2-2.7,0.7-3.8c0.4-1.1,1.1-2,1.9-2.7c0.8-0.7,1.8-1.3,2.9-1.7c1.1-0.4,2.4-0.6,3.8-0.6
		c0.7,0,1.3,0,2,0.1c0.6,0.1,1.3,0.2,1.8,0.4c0.6,0.2,1.1,0.3,1.5,0.5c0.5,0.2,0.8,0.4,1.1,0.6c0.5,0.3,0.9,0.7,1.1,1.1
		c0.3,0.4,0.4,1,0.4,1.6v13.3c0,1.3-0.2,2.4-0.7,3.3s-1.1,1.7-1.9,2.3c-0.8,0.6-1.8,1.1-2.9,1.3c-1.1,0.3-2.3,0.4-3.6,0.4
		s-2.4-0.1-3.4-0.3c-1-0.2-1.8-0.5-2.3-0.9c-0.9-0.6-1.3-1.4-1.3-2.4c0-0.6,0.1-1.1,0.3-1.5c0.2-0.5,0.5-0.8,0.8-1
		c0.7,0.4,1.5,0.7,2.4,1s1.8,0.4,2.7,0.4c1.3,0,2.3-0.2,3.1-0.6s1.1-1.1,1.1-2.1V66.6z M153.1,62.6c0.5,0,0.9-0.1,1.3-0.2
		c0.4-0.1,0.7-0.3,1-0.4v-6.9c-0.3-0.1-0.5-0.2-0.8-0.3s-0.6-0.1-1.1-0.1c-1,0-1.9,0.3-2.5,1c-0.6,0.6-1,1.7-1,3.1
		c0,1.5,0.3,2.5,0.9,3.1C151.5,62.3,152.2,62.6,153.1,62.6z"/>
	<path class="st3" d="M170.3,61.6c0.3,0.9,0.9,1.5,1.7,1.8s1.7,0.5,2.7,0.5s2-0.1,2.9-0.4c0.9-0.3,1.6-0.5,2.2-0.9
		c0.4,0.2,0.7,0.6,1,1s0.4,0.9,0.4,1.4c0,0.6-0.2,1.1-0.5,1.5s-0.8,0.8-1.4,1.1c-0.6,0.3-1.3,0.5-2.2,0.6c-0.8,0.1-1.8,0.2-2.8,0.2
		c-1.4,0-2.7-0.2-3.9-0.6s-2.3-1-3.1-1.8c-0.9-0.8-1.6-1.8-2.1-3c-0.5-1.2-0.8-2.6-0.8-4.2c0-1.6,0.3-2.9,0.8-4.1
		c0.5-1.1,1.2-2.1,2-2.8s1.8-1.3,2.9-1.6c1.1-0.3,2.2-0.5,3.3-0.5c1.3,0,2.4,0.2,3.5,0.6c1,0.4,1.9,0.9,2.7,1.6
		c0.8,0.7,1.3,1.5,1.7,2.4s0.6,1.9,0.6,3.1c0,0.8-0.2,1.4-0.7,1.9c-0.5,0.4-1.1,0.7-1.9,0.8L170.3,61.6z M173.3,54.3
		c-0.9,0-1.7,0.3-2.3,0.8c-0.6,0.6-1,1.3-1.1,2.3l6.1-1c0-0.2-0.1-0.5-0.2-0.7c-0.1-0.3-0.3-0.5-0.5-0.7s-0.5-0.4-0.8-0.5
		C174.2,54.4,173.8,54.3,173.3,54.3z"/>
	<path class="st3" d="M191.4,68.4c-2.1,0-3.7-0.5-4.9-1.4c-1.1-1-1.7-2.5-1.7-4.7V46.4c0.3-0.1,0.6-0.1,1.1-0.2
		c0.5-0.1,1-0.1,1.6-0.1c1.2,0,2,0.2,2.5,0.6c0.5,0.4,0.8,1.2,0.8,2.3v1.9h4.7c0.1,0.3,0.3,0.6,0.4,1c0.1,0.4,0.2,0.8,0.2,1.3
		c0,0.8-0.2,1.4-0.6,1.8c-0.4,0.4-0.9,0.6-1.5,0.6h-3.3V62c0,0.6,0.2,1.1,0.6,1.3c0.4,0.3,1,0.4,1.7,0.4c0.4,0,0.7,0,1.1-0.1
		c0.4-0.1,0.7-0.1,1-0.2c0.2,0.3,0.4,0.6,0.6,0.9c0.2,0.3,0.2,0.7,0.2,1.2c0,0.9-0.3,1.7-1,2.2C194.3,68.1,193.1,68.4,191.4,68.4z"
		/>
</g>
<g class="st1">
	<path class="st2" d="M214.2,63.2h-7.4c-0.2,0.8-0.5,1.7-0.8,2.5c-0.3,0.9-0.5,1.6-0.7,2.2c-0.2,0.1-0.5,0.2-0.7,0.2
		c-0.3,0.1-0.6,0.1-0.9,0.1c-0.7,0-1.3-0.1-1.7-0.4s-0.6-0.7-0.6-1.3c0-0.3,0-0.5,0.1-0.8s0.2-0.5,0.3-0.9c0.2-0.6,0.4-1.4,0.7-2.2
		c0.3-0.9,0.6-1.8,1-2.8c0.3-1,0.7-2.1,1.1-3.2s0.8-2.1,1.1-3.2c0.4-1,0.7-2,1.1-2.9c0.3-0.9,0.6-1.7,0.9-2.3
		c0.3-0.2,0.7-0.3,1.3-0.5s1.1-0.2,1.7-0.2c0.8,0,1.5,0.1,2.1,0.3s1,0.6,1.2,1.1c0.4,1.2,0.9,2.6,1.5,4.2c0.5,1.6,1.1,3.2,1.6,4.9
		s1.1,3.3,1.6,4.9c0.5,1.6,1,3,1.4,4.3c-0.2,0.2-0.5,0.4-0.9,0.6s-0.8,0.2-1.4,0.2c-0.8,0-1.3-0.1-1.6-0.4s-0.6-0.7-0.7-1.3
		L214.2,63.2z M210.5,51.4c-0.2,0.6-0.4,1.2-0.6,1.8c-0.2,0.7-0.5,1.4-0.7,2.1c-0.3,0.7-0.5,1.5-0.8,2.2c-0.3,0.8-0.5,1.5-0.8,2.2
		h5.7L210.5,51.4L210.5,51.4L210.5,51.4z"/>
	<path class="st2" d="M230.1,68.3c-0.6,0-1.2-0.1-1.8-0.2c-0.5-0.1-1-0.3-1.5-0.4v6.1c-0.2,0-0.5,0.1-0.8,0.2s-0.7,0.1-1.1,0.1
		c-0.8,0-1.3-0.1-1.7-0.4s-0.6-0.8-0.6-1.5V55.4c0-0.5,0.1-1,0.3-1.3s0.5-0.6,1-0.9c0.6-0.4,1.4-0.7,2.4-1c0.9-0.3,2-0.4,3.2-0.4
		s2.3,0.2,3.3,0.5s1.9,0.8,2.7,1.5c0.7,0.7,1.3,1.5,1.7,2.6s0.6,2.3,0.6,3.7s-0.2,2.6-0.6,3.6c-0.4,1-0.9,1.9-1.6,2.6
		c-0.7,0.7-1.5,1.2-2.5,1.6C232.3,68.2,231.3,68.3,230.1,68.3z M229.5,65c1.3,0,2.4-0.4,3.1-1.2c0.7-0.8,1.1-2.1,1.1-3.8
		c0-1.8-0.4-3-1.2-3.8c-0.8-0.7-1.8-1.1-3-1.1c-0.6,0-1.1,0.1-1.6,0.2c-0.5,0.2-0.8,0.3-1.2,0.5v8.5c0.4,0.2,0.7,0.4,1.2,0.5
		C228.5,64.9,228.9,65,229.5,65z"/>
	<path class="st2" d="M248.8,68.3c-0.6,0-1.2-0.1-1.8-0.2c-0.5-0.1-1-0.3-1.5-0.4v6.1c-0.2,0-0.5,0.1-0.8,0.2s-0.7,0.1-1.1,0.1
		c-0.8,0-1.3-0.1-1.7-0.4s-0.6-0.8-0.6-1.5V55.4c0-0.5,0.1-1,0.3-1.3s0.5-0.6,1-0.9c0.6-0.4,1.4-0.7,2.4-1c0.9-0.3,2-0.4,3.2-0.4
		s2.3,0.2,3.3,0.5s1.9,0.8,2.7,1.5c0.7,0.7,1.3,1.5,1.7,2.6c0.4,1.1,0.6,2.3,0.6,3.7s-0.2,2.6-0.6,3.6s-0.9,1.9-1.6,2.6
		s-1.5,1.2-2.5,1.6C251,68.2,249.9,68.3,248.8,68.3z M248.2,65c1.3,0,2.4-0.4,3.1-1.2c0.7-0.8,1.1-2.1,1.1-3.8c0-1.8-0.4-3-1.2-3.8
		c-0.8-0.7-1.8-1.1-3-1.1c-0.6,0-1.1,0.1-1.6,0.2c-0.5,0.2-0.8,0.3-1.2,0.5v8.5c0.4,0.2,0.7,0.4,1.2,0.5S247.6,65,248.2,65z"/>
</g>
<g>
	<g>
		<g>
			<path class="st2" d="M458.3,85.4l-48-5.6c-1.7-0.2-2.9-1.8-2.8-3.5l3.4-28.8L437,30c2.1-1.5,5-1.1,6.7,0.7l21.4,23.1l-3.3,28.9
				C461.6,84.5,460.1,85.7,458.3,85.4z"/>
		</g>
	</g>
	<path class="st4" d="M435.5,30.2"/>
	<polygon class="st5" points="436.3,66.1 412.7,47.8 411.7,45.1 457.5,36.2 458.1,42.1 460.8,42 461.6,46.8 463.7,47.1 463,54.1 	
		"/>
	<polygon class="st6" points="458.1,42.1 459.5,55.7 463,54.1 461.2,41.9 	"/>
	<g>
		<path class="st2" d="M432.7,55.6l-0.6,0.1c-0.5,0.1-0.9,0-1.1-0.2c-0.3-0.3-0.6-0.7-0.7-1.3c-0.1-0.4,0-0.7,0-1s0.2-0.6,0.1-0.8
			l1.3-0.2c0-0.2-0.1-0.4-0.2-0.5c0-0.1-0.1-0.4-0.1-0.5c-0.2-1-0.2-1.8,0-2.6s0.5-1.4,1-2s1-1.1,1.7-1.4c0.7-0.3,1.5-0.6,2.3-0.7
			c1.2-0.2,2.2-0.2,2.8,0.1c0.7,0.3,1.2,0.9,1.3,1.6c0.1,0.4,0,0.7,0,1.1c-0.1,0.4-0.3,0.6-0.4,0.8c-0.3-0.1-0.7-0.2-1-0.2
			s-0.8,0-1.2,0.1c-0.7,0.1-1.3,0.4-1.7,0.9c-0.4,0.4-0.5,1-0.3,1.8c0,0.1,0.1,0.3,0.1,0.5s0.1,0.3,0.1,0.5l3.5-0.6
			c0.1,0.2,0.2,0.4,0.5,0.7s0.3,0.6,0.3,0.9c0.1,0.7,0.1,1.2-0.1,1.5s-0.6,0.5-1.1,0.6l-2.1,0.3l0.1,0.4c0.2,1,0,1.9-0.3,2.6
			l5.8-1.1c0.1,0.2,0.3,0.3,0.5,0.7c0.2,0.3,0.3,0.6,0.3,0.9c0.2,0.6,0,1.1-0.2,1.4s-0.6,0.5-1.1,0.6l-8.8,1.6
			c-0.5,0.1-0.9,0-1.3-0.3s-0.7-0.7-0.8-1.4c0-0.1,0-0.1,0-0.2c0,0,0-0.1,0-0.2c0.7-0.5,1.1-0.9,1.4-1.6c0.2-0.5,0.3-1.4,0.1-2.4
			L432.7,55.6z"/>
	</g>
</g>
</svg>
